# AST/ASF file generated using VICON BodyLanguage
# -----------------------------------------------
:version 1.10
:name VICON
:units
  mass 1.0
  length 0.45
  angle deg
:documentation
   .ast/.asf automatically generated from VICON data using
   VICON BodyBuilder and BodyLanguage model FoxedUp or BRILLIANT.MOD
:root
   order TX TY TZ RX RY RZ
   axis XYZ
   position 0 0 0  
   orientation 0 0 0 
:bonedata
  begin
     id 1 
     name lhipjoint
     direction 0.543289 -0.788407 0.288535 
     length 2.57127 
     axis 0 0 0  XYZ
  end
  begin
     id 2 
     name lfemur
     direction 0.34202 -0.939693 0  
     length 8.47298  
     axis 0 0 20  XYZ
    dof rx ry rz
    limits (-160.0 20.0)
           (-70.0 70.0)
           (-60.0 70.0)
  end
  begin
     id 3 
     name ltibia
     direction 0.34202 -0.939693 0   
     length 8.13367   
     axis 0 0 20   XYZ
    dof rx
    limits (-10.0 170.0)
  end
  begin
     id 4 
     name lfoot
     direction 0.114037 -0.313314 0.942778   
     length 2.67113   
     axis -90 7.62852e-016 20   XYZ
    dof rx rz
    limits (-45.0 90.0)
           (-70.0 20.0)
  end
  begin
     id 5 
     name ltoes
     direction 1.536e-011 -4.21847e-011 1   
     length 1.32217   
     axis -90 7.62852e-016 20   XYZ
    dof rx
    limits (-90.0 20.0)
  end
  begin
     id 6 
     name rhipjoint
     direction -0.571293 -0.770752 0.282074   
     length 2.63017  
     axis 0 0 0  XYZ 
  end
  begin
     id 7 
     name rfemur
     direction -0.34202 -0.939693 0   
     length 8.60885   
     axis 0 0 -20   XYZ
    dof rx ry rz
    limits (-160.0 20.0)
           (-70.0 70.0)
           (-70.0 60.0)
  end
  begin
     id 8 
     name rtibia
     direction -0.34202 -0.939693 0   
     length 8.07673   
     axis 0 0 -20   XYZ
    dof rx
    limits (-10.0 170.0)
 end
 begin
     id 9 
     name rfoot
     direction -0.121336 -0.333368 0.934956   
     length 2.81602  
     axis -90 -7.62852e-016 -20   XYZ
    dof rx rz
    limits (-45.0 90.0)
           (-20.0 70.0)
  end
  begin
     id 10 
     name rtoes
     direction -1.53491e-011 -4.21808e-011 1   
     length 1.38905   
     axis -90 -7.62852e-016 -20   XYZ
    dof rx
    limits (-90.0 20.0)
  end
  begin
     id 11 
     name lowerback
     direction 0.0136776 0.999869 -0.00861835   
     length 2.14087   
     axis 0 0 0   XYZ
    dof rx ry rz
    limits (-20.0 45.0)
           (-30.0 30.0)
           (-30.0 30.0)
  end
  begin
     id 12 
     name upperback
     direction -0.00789158 0.999804 0.0181308   
     length 2.14151   
     axis 0 0 0   XYZ
    dof rx ry rz
    limits (-20.0 45.0)
           (-30.0 30.0)
           (-30.0 30.0)
  end
  begin
     id 13 
     name thorax
     direction -0.0135231 0.999666 0.0220247   
     length 2.13644   
     axis 0 0 0   XYZ
    dof rx ry rz
    limits (-20.0 45.0)
           (-30.0 30.0)
           (-30.0 30.0)
  end
  begin
     id 14 
     name lowerneck
     direction -0.0392259 0.997317 0.0618018   
     length 1.65045   
     axis 0 0 0   XYZ
    dof rx ry rz
    limits (-20.0 45.0)
           (-30.0 30.0)
           (-30.0 30.0)
  end
  begin
     id 15 
     name upperneck
     direction 0.0765547 0.994276 -0.0745319   
     length 1.66045   
     axis 0 0 0   XYZ
    dof rx ry rz
    limits (-20.0 45.0)
           (-30.0 30.0)
           (-30.0 30.0)
  end
  begin
     id 16
     name head
     direction 0.0241564 0.999031 -0.036785  
     length 1.66594  
     axis 0 0 0   XYZ
    dof rx ry rz
    limits (-20.0 45.0)
           (-30.0 30.0)
           (-30.0 30.0)
  end
  begin
     id 17 
     name lclavicle
     direction 0.967398 0.249018 0.0461573  
     length 3.75176  
     axis 0 0 0   XYZ
    dof ry rz
    limits (-20.0 10.0)
           (0.0 20.0)
  end
  begin
     id 18 
     name lhumerus
     direction 1 -4.48963e-011 -3.05005e-027   
     length 5.93342   
     axis 180 -30 -90   XYZ
    dof rx ry rz
    limits (-60.0 90.0)
           (-90.0 90.0)
           (-90.0 90.0)
  end
  begin
     id 19
     name lradius
     direction 1 -4.48957e-011 1.07006e-026   
     length 3.94763   
     axis 180 -30 -90   XYZ
    dof rx
    limits (-10.0 170.0)
  end
  begin
     id 20
     name lwrist
     direction 1 -4.48978e-011 1.92422e-026   
     length 1.97382   
     axis -1.18182e-014 90 90   XYZ
    dof ry
    limits (-180.0 0.0)
 end
  begin
     id 21 
     name lhand
     direction 1 -4.48931e-011 3.84844e-026   
     length 0.560187   
     axis -2.45563e-014 90 90   XYZ
    dof rx rz
    limits (-90.0 90.0)
           (-45.0 45.0)
  end
  begin
     id 22 
     name lfingers
     direction 1 -4.48952e-011 7.69687e-026   
     length 0.451637   
     axis -4.91126e-014 90 90   XYZ
    dof rx
    limits (0.0 90.0)
  end
  begin
     id 23
     name lthumb
     direction 0.707107 -6.34901e-011 0.707107   
     length 0.648463   
     axis -90 45 2.85299e-015   XYZ
    dof rx rz
    limits (-45.0 45.0)
           (-45.0 45.0)
  end
  begin
     id 24 
     name rclavicle
     direction -0.965946 0.258716 0.00371831   
     length 3.63667  
     axis 0 0 0   XYZ 
    dof ry rz
    limits (-10.0 20.0)
           (-20.0 0.0)
  end
  begin
     id 25 
     name rhumerus
     direction -1 -4.48966e-011 -1.78361e-028  
     length 6.28647   
     axis 180 30 90   XYZ
    dof rx ry rz
    limits (-90.0 60.0)
           (-90.0 90.0)
           (-90.0 90.0)
  end
  begin
     id 26 
     name rradius
     direction -1 -4.48961e-011 1.05248e-026   
     length 3.81645   
     axis 180 30 90   XYZ
    dof rx
    limits (-10.0 170.0)
  end
  begin
     id 27 
     name rwrist
     direction -1 -4.48979e-011 1.92422e-026   
     length 1.90822   
     axis -1.18182e-014 -90 -90   XYZ
    dof ry
    limits (-180.0 0.0)
  end
  begin
     id 28
     name rhand
     direction -1 -4.48937e-011 3.84844e-026   
     length 0.646185   
     axis -2.45563e-014 -90 -90   XYZ
    dof rx rz
    limits (-90.0 90.0)
           (-45.0 45.0)
  end
  begin
     id 29
     name rfingers
     direction -1 -4.48953e-011 7.69687e-026   
     length 0.520971   
     axis -4.91126e-014 -90 -90   XYZ
    dof rx
    limits (0.0 90.0)
  end
  begin
     id 30
     name rthumb
     direction -0.707107 -6.3494e-011 0.707107   
     length 0.748013   
     axis -90 -45 -2.85299e-015   XYZ
    dof rx rz
    limits (-45.0 45.0)
           (-45.0 45.0)
  end
:hierarchy
  begin
    root lhipjoint rhipjoint lowerback
    lhipjoint lfemur
    lfemur ltibia
    ltibia lfoot
    lfoot ltoes
    rhipjoint rfemur
    rfemur rtibia
    rtibia rfoot
    rfoot rtoes
    lowerback upperback
    upperback thorax
    thorax lowerneck lclavicle rclavicle
    lowerneck upperneck
    upperneck head
    lclavicle lhumerus
    lhumerus lradius
    lradius lwrist
    lwrist lhand lthumb
    lhand lfingers
    rclavicle rhumerus
    rhumerus rradius
    rradius rwrist
    rwrist rhand rthumb
    rhand rfingers
  end

#!OML:ASF H:\HAZMAT1\Patient Classification 1\Patient 3\Session 1\dancer.ASF
:FULLY-SPECIFIED
:DEGREES
16
upperback -2.956140 3.324630 1.683610
rfoot 32.442101 -13.102200
lradius 14.372100
lthumb 7.695420 71.650703
rradius 24.324699
lwrist -39.685600
rhand -17.231501 -19.919500
rhumerus 60.292500 33.981800 -50.933399
lowerneck 1.313640 -14.800200 -11.122500
lhand -18.595699 41.810799
ltibia 42.113400
head 3.919150 -10.371000 5.450190
rwrist 7.238000
lfingers 7.125020
rtoes 34.409698
lowerback -1.284260 2.472670 0.348665
rfingers 7.125020
lclavicle -0.000000 -0.000000
upperneck 4.273260 -20.856501 15.900200
rfemur -23.710600 -38.129101 37.502800
thorax -2.394600 1.672650 1.503090
rclavicle -0.000000 -0.000000
rtibia 59.386700
lfoot -23.146900 -5.296010
lhumerus -62.077000 20.916100 4.146600
rthumb 9.011920 -49.707001
root 10.492600 19.263399 12.098200 41.043400 -38.148800 -28.445101
ltoes 4.763810
lfemur -45.812401 -35.497601 19.999901
17
upperback -2.289240 -0.950028 -1.221230
rfoot 35.073399 -8.824190
lradius 10.862300
lthumb 9.145690 67.622498
rradius 39.792301
lwrist -57.799900
rhand -19.651800 -18.863300
rhumerus 76.125397 1.948650 -29.598700
lowerneck 0.102767 -8.824470 -9.224520
lhand -17.092899 37.840801
ltibia 48.298698
head 5.600850 -6.610410 5.521070
rwrist -3.996840
lfingers 7.125020
rtoes 33.155499
lowerback -1.076820 -0.688000 0.275012
rfingers 7.125020
lclavicle 0.000000 0.000000
upperneck 13.061600 -13.800700 15.349000
rfemur -21.893200 -25.622900 42.524601
thorax -1.766980 -0.498021 -1.400680
rclavicle 0.000000 0.000000
rtibia 72.793999
lfoot -23.908800 6.892330
lhumerus -70.772102 26.032301 3.510010
rthumb 6.675930 -48.738098
root 10.509600 18.998600 12.004000 40.219101 -38.675400 -28.209000
ltoes 7.407690
lfemur -43.863499 -17.055901 10.698200
18
upperback -1.407900 -3.896570 -3.037750
rfoot 34.312000 -11.157600
lradius 8.286420
lthumb 9.305460 62.867599
rradius 54.727200
lwrist -68.468498
rhand -23.415199 -21.321699
rhumerus 80.187698 -28.006701 -38.304298
lowerneck -2.275490 -2.337810 -2.346270
lhand -16.927299 33.092899
ltibia 53.332401
head 7.951970 -2.595590 4.156100
rwrist -9.705440
lfingers 7.125020
rtoes 31.261101
lowerback -0.004760 -2.884940 2.295120
rfingers 7.125020
lclavicle 0.000000 0.000000
upperneck 23.059299 -6.551700 12.862500
rfemur -28.018999 -17.946301 43.669701
thorax -1.810820 -2.017210 -4.343140
rclavicle 0.000000 0.000000
rtibia 93.081497
lfoot -30.482500 12.349400
lhumerus -74.466003 33.717701 11.152500
rthumb 3.042160 -51.279800
root 10.393300 18.574900 12.501900 42.649700 -55.597099 -40.173302
ltoes 7.356370
lfemur -28.445000 -9.337360 0.886436
19
upperback -1.454770 -4.869530 -6.231350
rfoot 16.736300 -22.646999
lradius 6.352090
lthumb 4.376230 65.890900
rradius 57.380501
lwrist -82.476700
rhand -33.453400 -30.141199
rhumerus 47.464600 -54.082100 -21.986601
lowerneck -0.483506 1.105550 8.778520
lhand -22.033701 35.956100
ltibia 53.581100
head 8.907660 -0.237730 0.722687
rwrist -10.051100
lfingers 7.125020
rtoes 16.136400
lowerback 0.829667 -3.518830 3.717220
rfingers 7.125020
lclavicle 0.000000 0.000000
upperneck 27.784500 -2.526420 7.319970
rfemur -34.647800 -8.337710 37.562000
thorax -2.842090 -2.636640 -8.443920
rclavicle 0.000000 0.000000
rtibia 87.045197
lfoot -35.447399 11.684500
lhumerus -51.117500 37.848900 27.344801
rthumb -6.651880 -60.016701
root 9.920490 18.198999 12.942500 49.343498 -70.763901 -53.821701
ltoes 7.768180
lfemur -14.471500 3.508480 -7.724900
20
upperback -1.482210 -10.353300 -4.508560
rfoot -6.103230 -24.317400
lradius 6.607300
lthumb 1.992730 67.903900
rradius 53.980301
lwrist -79.171600
rhand -40.425098 -39.019501
rhumerus 9.845880 -59.029800 1.775330
lowerneck -3.345490 4.162170 6.438190
lhand -24.501801 37.933498
ltibia 51.625000
head 8.933380 1.880570 0.813081
rwrist -14.302700
lfingers 7.125020
rtoes 16.275900
lowerback -0.461981 -7.655440 0.473527
rfingers 7.125020
lclavicle 0.000000 0.000000
upperneck 26.573799 2.632480 5.152850
rfemur -38.968498 4.946430 23.808901
thorax -2.197700 -5.266110 -4.682090
rclavicle 0.000000 0.000000
rtibia 66.122299
lfoot -37.516602 12.667600
lhumerus -21.905199 45.230900 50.051399
rthumb -13.377600 -68.570099
root 9.124450 18.036400 12.995200 42.662701 -76.886002 -48.198399
ltoes 5.644760
lfemur -8.305220 6.423800 -13.162800
21
upperback -1.988450 -12.363400 -3.456040
rfoot 9.285010 -21.982800
lradius 7.547850
lthumb 0.182458 65.389297
rradius 44.938801
lwrist -70.928596
rhand -41.453602 -48.039600
rhumerus -20.411301 -51.012901 18.601299
lowerneck -5.460180 5.081960 7.216440
lhand -26.376101 35.409599
ltibia 46.791000
head 7.837010 2.871670 0.039444
rwrist -17.792601
lfingers 7.125020
rtoes 16.626801
lowerback -2.806840 -9.203560 0.303846
rfingers 7.125020
lclavicle 0.000000 0.000000
upperneck 21.992500 4.870930 2.635840
rfemur -39.612499 18.258301 8.719660
thorax -1.337350 -6.254060 -3.827880
rclavicle 0.000000 0.000000
rtibia 44.721500
lfoot -39.126301 15.578800
lhumerus 8.202450 37.934502 69.811996
rthumb -14.368700 -77.522301
root 7.882970 17.989700 12.890200 33.338200 -79.327301 -38.276501
ltoes 4.035910
lfemur -1.817370 5.128870 -16.004101
22
upperback -2.434180 -13.408800 -1.979150
rfoot 0.082004 -14.063900
lradius 9.598560
lthumb 0.832520 65.166000
rradius 37.297699
lwrist -58.310600
rhand -41.467300 -50.283901
rhumerus -34.204102 -42.563599 17.622000
lowerneck -7.479900 5.872390 7.500950
lhand -25.703100 35.187901
ltibia 43.786999
head 6.813350 3.556810 -0.167873
rwrist -18.367500
lfingers 7.125020
rtoes 2.814680
lowerback -4.457740 -10.007200 0.549733
rfingers 7.125020
lclavicle -0.000000 -0.000000
upperneck 17.579201 6.339570 1.721600
rfemur -37.284500 14.150800 13.040600
thorax -0.668474 -6.757860 -2.762700
rclavicle -0.000000 -0.000000
rtibia 43.855900
lfoot -36.321999 13.802900
lhumerus 28.197500 27.428600 72.986603
rthumb -14.382000 -79.765701
root 6.133930 17.959900 12.440500 36.465900 -81.368202 -39.730301
ltoes -7.773370
lfemur 4.481070 -0.246444 -15.242900
23
upperback -2.793280 -14.165800 -0.173336
rfoot -13.153300 -13.746600
lradius 11.905000
lthumb 1.803080 64.241402
rradius 31.617201
lwrist -47.363300
rhand -41.499100 -49.505699
rhumerus -42.477001 -38.539398 17.320900
lowerneck -8.208910 7.546590 8.488780
lhand -24.698200 34.269199
ltibia 51.639400
head 6.116510 4.737570 -1.014600
rwrist -15.815400
lfingers 7.125020
rtoes 12.427300
lowerback -5.212050 -10.518400 2.263170
rfingers 7.125020
lclavicle 0.000000 0.000000
upperneck 14.210000 9.102280 -1.183440
rfemur -30.294201 10.450500 23.047600
thorax -0.618201 -7.141090 -1.963840
rclavicle 0.000000 0.000000
rtibia 45.550201
lfoot -16.735201 13.501700
lhumerus 39.725700 21.134899 65.886902
rthumb -14.412600 -78.985298
root 3.762690 18.183701 11.491800 57.322300 -82.980698 -59.795300
ltoes -18.019100
lfemur 5.381950 -3.380550 -11.187700
24
upperback -2.574450 -13.332700 0.430776
rfoot -20.942200 -11.759800
lradius 13.574200
lthumb 1.896200 62.962601
rradius 26.962000
lwrist -42.814701
rhand -41.431999 -49.647099
rhumerus -46.714199 -37.855701 14.974600
lowerneck -5.909400 8.471000 8.905810
lhand -24.601700 32.991299
ltibia 72.646698
head 4.283000 5.464200 -1.685290
rwrist -11.411700
lfingers 7.125020
rtoes 14.269100
lowerback -4.545590 -9.896000 2.653560
rfingers 7.125020
lclavicle -0.000000 0.000000
upperneck 8.930760 10.785000 -2.980400
rfemur -25.166100 13.128800 26.622999
thorax -0.655664 -6.717370 -1.447500
rclavicle -0.000000 0.000000
rtibia 49.614101
lfoot 2.574180 12.504900
lhumerus 51.152699 20.101900 60.117401
rthumb -14.347900 -79.131302
root 1.798170 18.186899 10.720400 111.709000 -85.139397 -114.735001
ltoes 4.677240
lfemur -10.857600 -3.266790 -10.205100
25
upperback -2.421510 -12.712100 0.805125
rfoot -25.889500 -9.884320
lradius 14.642600
lthumb 2.284360 61.782398
rradius 25.998301
lwrist -40.148300
rhand -39.318501 -49.162102
rhumerus -49.664398 -36.213100 13.623300
lowerneck -2.979810 9.467930 7.967830
lhand -24.199800 31.814899
ltibia 80.472504
head 1.794850 6.193990 -1.986470
rwrist -6.725490
lfingers 7.125020
rtoes 15.970300
lowerback -4.209780 -9.440850 2.619580
rfingers 7.125020
lclavicle 0.000000 0.000000
upperneck 1.702840 12.391700 -3.194700
rfemur -19.640100 15.004300 27.118401
thorax -0.560711 -6.397770 -1.010950
rclavicle 0.000000 0.000000
rtibia 51.012901
lfoot 4.456030 19.310699
lhumerus 58.370201 22.313400 54.735901
rthumb -12.310800 -78.779701
root 0.491784 18.180799 10.305400 159.112000 -83.174896 -163.395996
ltoes 12.748900
lfemur -30.481001 -1.259730 -12.518900
